<svg width="61" height="56" viewBox="0 0 61 56" fill="none" xmlns="http://www.w3.org/2000/svg">
<path d="M30.5 27.9999C27.7041 27.9999 25.3107 27.086 23.3198 25.2583C21.3288 23.4305 20.3333 21.2333 20.3333 18.6666C20.3333 16.0999 21.3288 13.9027 23.3198 12.0749C25.3107 10.2471 27.7041 9.33325 30.5 9.33325C33.2958 9.33325 35.6892 10.2471 37.6802 12.0749C39.6711 13.9027 40.6666 16.0999 40.6666 18.6666C40.6666 21.2333 39.6711 23.4305 37.6802 25.2583C35.6892 27.086 33.2958 27.9999 30.5 27.9999ZM10.1666 46.6666V40.1333C10.1666 38.811 10.5373 37.5958 11.2786 36.4874C12.0199 35.3791 13.0048 34.5333 14.2333 33.9499C16.8597 32.7444 19.5284 31.8402 22.2395 31.2374C24.9507 30.6346 27.7041 30.3333 30.5 30.3333C33.2958 30.3333 36.0493 30.6346 38.7604 31.2374C41.4715 31.8402 44.1402 32.7444 46.7666 33.9499C47.9951 34.5333 48.98 35.3791 49.7213 36.4874C50.4626 37.5958 50.8333 38.811 50.8333 40.1333V46.6666H10.1666ZM15.25 41.9999H45.75V40.1333C45.75 39.7055 45.6335 39.3166 45.4005 38.9666C45.1675 38.6166 44.8604 38.3444 44.4791 38.1499C42.1916 37.0999 39.8829 36.3124 37.5531 35.7874C35.2232 35.2624 32.8722 34.9999 30.5 34.9999C28.1277 34.9999 25.7767 35.2624 23.4468 35.7874C21.117 36.3124 18.8083 37.0999 16.5208 38.1499C16.1395 38.3444 15.8324 38.6166 15.5994 38.9666C15.3665 39.3166 15.25 39.7055 15.25 40.1333V41.9999ZM30.5 23.3333C31.8979 23.3333 33.0946 22.8763 34.0901 21.9624C35.0856 21.0485 35.5833 19.9499 35.5833 18.6666C35.5833 17.3833 35.0856 16.2846 34.0901 15.3708C33.0946 14.4569 31.8979 13.9999 30.5 13.9999C29.102 13.9999 27.9053 14.4569 26.9099 15.3708C25.9144 16.2846 25.4166 17.3833 25.4166 18.6666C25.4166 19.9499 25.9144 21.0485 26.9099 21.9624C27.9053 22.8763 29.102 23.3333 30.5 23.3333Z" fill="#F7F9F9"/>
</svg>
